#N canvas 0 46 1054 1152 10;
#X obj 292 353 pil;
#X msg 237 115 (+ 1 2);
#X msg 520 165 (foo 'weasel 'badger);
#X msg 51 158 load /home/rick/foo.l;
#X obj 169 469 print pil_result;
#X obj 215 151 bng 15 250 50 0 empty empty empty 17 7 0 10 -262144
-1 -1;
#X msg 432 148 (kaboom);
#X msg 431 125 (nil);
#X msg 24 213 (foo 1);
#X msg 99 181 (bar 2);
#X msg 161 196 (bang);
#X msg 519 143 (de foo (bar baz) (list bar baz baz bar));
#X obj 421 446 print pd_result;
#X msg 310 59 (pd-post 3);
#X msg 429 103 (pd-bang);
#X msg 9 135 (de bang () 'pop);
#X msg 322 80 (pd-post 'hoi);
#X msg 300 31 (pd-post (list "hej" "ju"));
#X msg 133 41 (pd-message 'ratchop);
#X msg 104 16 (pd-message '(hey you 1 2 3));
#X obj 456 635 print hey;
#X obj 413 513 route list;
#X obj 424 548 route hey;
#X obj 433 582 route you;
#X obj 583 621 +;
#X obj 610 662 print sum;
#X msg 579 543 1 2 3;
#X connect 0 0 4 0;
#X connect 0 1 12 0;
#X connect 0 1 21 0;
#X connect 1 0 0 0;
#X connect 2 0 0 0;
#X connect 3 0 0 0;
#X connect 5 0 0 0;
#X connect 6 0 0 0;
#X connect 7 0 0 0;
#X connect 8 0 0 0;
#X connect 9 0 0 0;
#X connect 10 0 0 0;
#X connect 11 0 0 0;
#X connect 13 0 0 0;
#X connect 14 0 0 0;
#X connect 15 0 0 0;
#X connect 16 0 0 0;
#X connect 17 0 0 0;
#X connect 18 0 0 0;
#X connect 19 0 0 0;
#X connect 21 0 22 0;
#X connect 22 0 23 0;
#X connect 23 0 20 0;
#X connect 23 0 24 0;
#X connect 24 0 25 0;
#X connect 26 0 24 0;
