#N canvas 0 29 1054 1169 10;
#X obj 357 353 pil;
#X msg 202 159 (+ 1 2);
#X msg 692 125 (foo 'weasel 'badger);
#X msg 13 81 load /home/rick/foo.l;
#X obj 301 464 print pil_result;
#X obj 716 249 bng 15 250 50 0 empty empty empty 17 7 0 10 -262144
-1 -1;
#X msg 161 132 (kaboom);
#X msg 235 190 (nil);
#X msg 12 151 (foo 1);
#X msg 61 104 (bar 2);
#X msg 653 248 (bang);
#X msg 693 106 (de foo (bar baz) (list bar baz baz bar));
#X obj 486 446 print pd_result;
#X msg 471 127 (pd-post 3);
#X msg 744 21 (pd-bang);
#X msg 483 148 (pd-post 'hoi);
#X msg 294 109 (pd-message 'ratchop);
#X obj 478 513 route list;
#X obj 489 548 route hey;
#X obj 498 582 route you;
#X obj 675 662 print sum;
#X msg 248 81 (pd-message '(hey you 45));
#X obj 648 621 + 1;
#X obj 522 634 print hey you;
#X msg 636 201 (setq ticks 0);
#X obj 48 442 print netreceive;
#X obj 85 296 netreceive 6000;
#X msg 745 252 (pd-post ticks);
#X msg 461 99 (pd-post (list "hej" "u"));
#X msg 639 225 (de bang() (setq ticks (+ 1 ticks))(list 'ticky ticks))
;
#X obj 773 329 metro 1;
#X text 154 366 picolisp lisp expression return values come out of
the first inlet;
#X text 487 403 puredata messages come out of the second inlet;
#X text 4 232 send lisp expressions to pd on port 6000 using \, e.g
netcat;
#X text 4 46 load lisp expressions from a file using a load message
;
#X text 242 28 the lisp function pd-message outputs pd messages on
pil's right hand outlet;
#X text 469 47 the lisp function pd-post prints debug messages to pd's
console output;
#X text 691 86 this is an example of a lisp function definition;
#X text 694 145 this is an example calling the function;
#X text 822 9 this lisp function causes pil to emit a bang on it's
right hand outlet;
#X text 888 252 when pil receives pd bangs \, it calls the lisp function
bang \, but does not emit any output to pil_result. Allows metro bangs
to 'clock' a lisp program without generating output;
#X obj 783 285 tgl 15 0 empty empty empty 17 7 0 10 -262144 -1 -1 0
1;
#X connect 0 0 4 0;
#X connect 0 1 17 0;
#X connect 0 1 12 0;
#X connect 1 0 0 0;
#X connect 2 0 0 0;
#X connect 3 0 0 0;
#X connect 5 0 0 0;
#X connect 6 0 0 0;
#X connect 7 0 0 0;
#X connect 8 0 0 0;
#X connect 9 0 0 0;
#X connect 10 0 0 0;
#X connect 11 0 0 0;
#X connect 13 0 0 0;
#X connect 14 0 0 0;
#X connect 15 0 0 0;
#X connect 16 0 0 0;
#X connect 17 0 18 0;
#X connect 18 0 19 0;
#X connect 19 0 22 0;
#X connect 19 0 23 0;
#X connect 21 0 0 0;
#X connect 22 0 20 0;
#X connect 24 0 0 0;
#X connect 26 0 25 0;
#X connect 26 0 0 0;
#X connect 27 0 0 0;
#X connect 28 0 0 0;
#X connect 29 0 0 0;
#X connect 30 0 0 0;
#X connect 41 0 30 0;
