#N canvas 0 46 1918 1152 10;
#X obj 357 353 pil;
#X msg 302 115 (+ 1 2);
#X msg 596 57 (foo 'weasel 'badger);
#X msg 48 147 load /home/rick/foo.l;
#X obj 234 469 print pil_result;
#X obj 280 151 bng 15 250 50 0 empty empty empty 17 7 0 10 -262144
-1 -1;
#X msg 418 164 (kaboom);
#X msg 417 141 (nil);
#X msg 21 202 (foo 1);
#X msg 96 170 (bar 2);
#X msg 158 185 (bang);
#X msg 597 38 (de foo (bar baz) (list bar baz baz bar));
#X obj 486 446 print pd_result;
#X msg 375 59 (pd-post 3);
#X msg 415 119 (pd-bang);
#X msg 6 124 (de bang () 'pop);
#X msg 387 80 (pd-post 'hoi);
#X msg 365 31 (pd-post (list "hej" "ju"));
#X msg 198 41 (pd-message 'ratchop);
#X obj 478 513 route list;
#X obj 489 548 route hey;
#X obj 498 582 route you;
#X obj 675 662 print sum;
#X msg 152 13 (pd-message '(hey you 45));
#X obj 648 621 + 1;
#X obj 522 634 print hey you;
#X obj 677 261 metro 100;
#X msg 676 214 1;
#X msg 727 213 0;
#X obj 798 267 print metrostate;
#X msg 449 322 (tick);
#X msg 584 131 (de tick() (setq ticks (+ 1 ticks)) (pd-post (list 'ticky
ticks)));
#X msg 581 107 (setq ticks 0);
#X connect 0 0 4 0;
#X connect 0 1 12 0;
#X connect 0 1 19 0;
#X connect 1 0 0 0;
#X connect 2 0 0 0;
#X connect 3 0 0 0;
#X connect 5 0 0 0;
#X connect 6 0 0 0;
#X connect 7 0 0 0;
#X connect 8 0 0 0;
#X connect 9 0 0 0;
#X connect 10 0 0 0;
#X connect 11 0 0 0;
#X connect 13 0 0 0;
#X connect 14 0 0 0;
#X connect 15 0 0 0;
#X connect 16 0 0 0;
#X connect 17 0 0 0;
#X connect 18 0 0 0;
#X connect 19 0 20 0;
#X connect 20 0 21 0;
#X connect 21 0 24 0;
#X connect 21 0 25 0;
#X connect 23 0 0 0;
#X connect 24 0 22 0;
#X connect 26 0 30 0;
#X connect 27 0 26 0;
#X connect 27 0 29 0;
#X connect 28 0 26 0;
#X connect 28 0 29 0;
#X connect 30 0 0 0;
#X connect 31 0 0 0;
#X connect 32 0 0 0;
