#N canvas 0 46 1364 720 10;
#X obj 291 245 pil;
#X msg 275 113 (+ 1 2);
#X msg 397 191 (foo 'weasel 'badger);
#X msg 409 139 (de foo (bar baz) (list baz bar bar baz));
#X msg 101 138 load /home/rick/foo.l;
#X obj 372 341 print pil_result;
#X obj 214 43 bng 15 250 50 0 empty empty empty 17 7 0 10 -262144 -1
-1;
#X connect 0 0 5 0;
#X connect 1 0 0 0;
#X connect 2 0 0 0;
#X connect 3 0 0 0;
#X connect 4 0 0 0;
#X connect 6 0 0 0;
